<svg id="Layer_1" data-name="Layer 1" xmlns="http://www.w3.org/2000/svg" viewBox="0 0 886.05 668.88">
  <path d="M815.411,668.88a70.638,70.638,0,0,0,70.568-73.764C883.655,542.554,850.25,467.223,759.2,399.188,632.861,304.79,709.11,83.774,543.271,61.266,270.684,24.271,294.944,271.689,126.628,359.9,19.487,416.048.007,525.911,0,598.354A70.591,70.591,0,0,0,70.635,668.88Z" fill="#f3f5fd"></path>
  <g>
    <rect x="261.518" width="381.27" height="494.601" transform="translate(904.307 494.601) rotate(-180)" fill="#dee8f5"></rect>
    <g>
      <g>
        <g>
          <path d="M381.37,74.639a42.355,42.355,0,1,1-42.355-42.355A42.227,42.227,0,0,1,381.37,74.639Z" fill="#c1d8ed"></path>
          <circle cx="339.015" cy="62.235" r="16.768" fill="#fff"></circle>
          <path d="M369.537,104.008a42.361,42.361,0,0,1-61.043,0c5.711-12.763,17.24-21.486,30.521-21.486S363.826,91.245,369.537,104.008Z" fill="#fff"></path>
        </g>
        <rect x="398.629" y="32.547" width="85.51" height="25.841" fill="#fff"></rect>
        <rect x="398.629" y="74.372" width="209.017" height="9.402" fill="#fff"></rect>
        <rect x="398.629" y="99.758" width="209.017" height="9.402" fill="#fff"></rect>
      </g>
      <rect x="296.661" y="143.531" width="72.09" height="11.104" fill="#fff"></rect>
      <rect x="296.661" y="166.983" width="310.986" height="28.876" fill="#fff"></rect>
      <rect x="296.661" y="217.115" width="72.09" height="11.104" fill="#fff"></rect>
      <rect x="296.661" y="240.567" width="310.986" height="28.876" fill="#fff"></rect>
      <rect x="296.661" y="290.699" width="72.09" height="11.104" fill="#fff"></rect>
      <rect x="296.661" y="314.151" width="310.986" height="28.876" fill="#fff"></rect>
      <rect x="296.661" y="364.282" width="72.09" height="11.104" fill="#fff"></rect>
      <rect x="296.661" y="387.735" width="310.986" height="28.876" fill="#fff"></rect>
    </g>
    <rect x="417.327" y="441.07" width="69.652" height="21.13" fill="#c1d8ed"></rect>
  </g>
  <g>
    <g>
      <path d="M201.165,222.756s7.732-4.1,6.006-25.156l15.976-2.963s-1.795,18.879,6.288,24.873Z" fill="#e69e87"></path>
      <path d="M198.106,189.435c1.106,6.388,4.592,12.438,10.227,14.5,6.69,2.45,11.645,2.616,19.358,2.616,10.525,0,10.177-10.977,10.473-22.038.3-11.106-.587-23.019-4.747-26.889-8.3-7.724-32.673-2.832-35.637,10.088C196.247,174.4,197.053,183.354,198.106,189.435Z" fill="#e69e87"></path>
      <path d="M243.805,164.046s4.31-.963,3.13-5.261c-.782-2.851-4.434-2.218-4.434-2.218s3.458-.633,3.458-3.652c0-1.9-1.462-5.124-5.871-3.282-5.174,2.161-11.074,1.883-15.561,1.129a51.715,51.715,0,0,0-7.707-1.088l-.014,0v0a29.667,29.667,0,0,0-8.814,1.179c-8.02,2.4-20.344,9.621-17.577,25.893,2.991,17.586,13.7,25.314,15.174,26.384,2.77,2.014,19.8,2.422,21.488.735,2.526-2.526,3.9-12.682,3.387-30.374,6.98-1.105,11.775-1.576,11.775-1.576s5.8.218,5.8-4.022S243.805,164.046,243.805,164.046Z" fill="#0f1011"></path>
      <path d="M235.557,186.611a6.143,6.143,0,0,1-12.245,1,6.042,6.042,0,0,1,5.621-6.625C233.311,180.848,235.279,183.229,235.557,186.611Z" fill="#e69e87"></path>
    </g>
    <path d="M272.815,657.164l-22.593-2.685c1.017-8.552,2.164-18.823,2.244-20.507,0,.106,0,.2,0,.265h22.752C275.213,634.919,275.213,636.994,272.815,657.164Z" fill="#e69e87"></path>
    <path d="M182.159,659.884l-22.752-.074s.076-23.492.076-25.573h22.752C182.235,636.324,182.159,659.884,182.159,659.884Z" fill="#e69e87"></path>
    <path d="M281.21,649.3c-1.884-47.063-1.893-98.4-2.584-145.548-7.7-51.585-11.985-108.118-21.6-159.334l-.289.085-.847-5.775-82.424-1.589L153.543,648.689l39.944,3.375,25.071-258.053c7.965,38.045,13.308,77.495,20.356,115.159,0,0,2.372,94.427,2.213,140.811Z" fill="#173161"></path>
    <path d="M209.816,668.684a4.449,4.449,0,0,0,4.431-4.469c0-.11-.005-.221-.014-.331h0a4.45,4.45,0,0,0-2.881-3.824l-26.481-8.869a3.753,3.753,0,0,0-3.112.346,20.7,20.7,0,0,1-12.425,3.685,18.456,18.456,0,0,1-9.556-3.491,1.676,1.676,0,0,0-2.738,1.3V665.98a2.9,2.9,0,0,0,2.9,2.9h.013Z" fill="#c1d8ed"></path>
    <path d="M300.535,668.684a4.449,4.449,0,0,0,4.431-4.469c0-.11,0-.221-.014-.331h0a4.45,4.45,0,0,0-2.881-3.824l-26.481-8.869a3.753,3.753,0,0,0-3.112.346,20.7,20.7,0,0,1-12.425,3.685,18.456,18.456,0,0,1-9.556-3.491,1.676,1.676,0,0,0-2.738,1.3V665.98a2.9,2.9,0,0,0,2.9,2.9h.013Z" fill="#c1d8ed"></path>
    <g>
      <path d="M149.21,372.678c0,3.229,1.7,14.023-1.037,14.794-1.644.462-3.586-7.582-3.586-7.582" fill="#e69e87"></path>
      <path d="M136.263,370.983s-8.953,21.792,1.259,34.312a2.045,2.045,0,0,0,3.625-1.172c.5-8.441,2.2-25.779,7.764-23.754V366.757" fill="#e69e87"></path>
    </g>
    <path d="M338.15,254.879s12.5-9.932,13.389-13.5-7.922-10.584-7.922-10.584,11.71-11.8,9.375-13.515c-2.756-2.02-16.344,15.148-16.344,15.148s1.921-6.177-.472-6.582c-.983-.166-1.762.8-3.3,5.17-1.753,4.981-5.257,12.477-5.257,12.477Z" fill="#e69e87"></path>
    <path d="M324.986,241.673,288,283.285l-28.966-51.85c-2.752-8.138-8.977-13.6-21.656-14.138-4.349-.187-25.575-.22-41.115-.22-10.441,0-19.012,3.2-23.961,8.153a21.829,21.829,0,0,0-5.439,8.806l-.149-.055L141.845,301.6a11.768,11.768,0,0,0-.6,2.343L131.21,371.568l23.367,3.468,9.859-66.42,10.042-27.308a57.718,57.718,0,0,1,1.7,12.823c0,22.757-10.289,32.956-9.536,44.633,1.193,18.359,90.389,14.021,94.934,3.593,4.679-10.755-4.818-17.38-4.4-52.557.045-3.827.341-7.832.748-11.909l17.552,31.419a11.812,11.812,0,0,0,19.141,2.086l48.628-56.884Z" fill="#ffb92c"></path>
  </g>
  <g>
    <path d="M128.821,585.041c-5-1.637-10.131.2-15.041,3.935,6.467-16.33,9.136-31.081-1.92-31.745-7.736-.465-13.662,5.47-18.164,13.908-1.583-14.836-5.668-25.9-14.818-22.232-10.046,4.028-11.575,17.83-10.051,32.272-4.425-7.377-9.191-11.49-13.518-7.163-12.913,12.913,18.783,49.3,18.783,49.3h7.872l4.492,4.877c-.909,1.923-1.407,3.068-1.407,3.068l5.706,11.612S149.573,591.834,128.821,585.041Z" fill="#8ddbe0"></path>
    <polygon points="114.708 668.88 70.158 668.88 62.701 616.873 122.165 616.873 114.708 668.88" fill="#c1d8ed"></polygon>
  </g>
  <g>
    <g>
      <path d="M744.491,469.558c-2.433-.8-4.929.1-7.318,1.914,3.146-7.944,4.445-15.12-.934-15.443-3.764-.226-6.647,2.662-8.837,6.766-.77-7.217-2.757-12.6-7.209-10.816-4.887,1.96-5.631,8.675-4.89,15.7-2.155-3.588-4.471-5.589-6.576-3.486-6.282,6.282,9.138,23.987,9.138,23.987h3.829l2.186,2.372c-.443.935-.685,1.493-.685,1.493l2.776,5.648S754.589,472.863,744.491,469.558Z" fill="#8ddbe0"></path>
      <polygon points="737.627 510.345 715.954 510.345 712.326 485.044 741.255 485.044 737.627 510.345" fill="#c1d8ed"></polygon>
    </g>
    <g>
      <g>
        <rect x="684.712" y="656.145" width="11.553" height="12.735" fill="#c1d8ed"></rect>
        <rect x="794.628" y="656.145" width="11.553" height="12.735" fill="#c1d8ed"></rect>
      </g>
      <rect x="767.654" y="510.939" width="48.473" height="146.682" fill="#c1d8ed"></rect>
      <rect x="634.925" y="514.188" width="49.639" height="141.957" fill="#c1d8ed"></rect>
      <path d="M770.919,657.621H631.66V510.939H770.919Zm-132.729-6.53h126.2V517.469H638.19Z" fill="#dee8f5"></path>
      <path d="M770.919,657.621H631.66V576.75H770.919Zm-132.729-6.53h126.2V583.28H638.19Z" fill="#dee8f5"></path>
      <g>
        <polygon points="694.79 529.104 694.79 538.445 694.79 576.697 753.947 576.697 753.947 538.445 753.947 529.104 694.79 529.104" fill="#c1d8ed"></polygon>
        <rect x="675.4" y="538.445" width="59.157" height="38.252" fill="#dee8f5"></rect>
        <rect x="675.4" y="538.445" width="59.157" height="2.867" fill="#c1d8ed"></rect>
        <rect x="675.4" y="529.104" width="59.157" height="9.341" transform="translate(1409.958 1067.549) rotate(180)" fill="#dee8f5"></rect>
        <rect x="697.06" y="546.127" width="15.838" height="5.744" rx="1.363" fill="#fff"></rect>
      </g>
      <g>
        <rect x="640.555" y="656.145" width="11.553" height="12.735" fill="#dee8f5"></rect>
        <rect x="750.471" y="656.145" width="11.553" height="12.735" fill="#dee8f5"></rect>
      </g>
      <g>
        <rect x="684.568" y="636.528" width="64.314" height="14.563" fill="#c1d8ed"></rect>
        <rect x="685.673" y="607.435" width="64.314" height="14.563" fill="#c1d8ed"></rect>
        <g>
          <rect x="658.923" y="636.528" width="68.012" height="14.563" fill="#dee8f5"></rect>
          <g opacity="0.62">
            <rect x="718.083" y="636.528" width="3.301" height="14.563" fill="#c1d8ed"></rect>
          </g>
          <g opacity="0.62">
            <rect x="711.48" y="636.528" width="3.301" height="14.563" fill="#c1d8ed"></rect>
          </g>
          <circle cx="666.721" cy="643.81" r="4.696" fill="#f3f5fd"></circle>
        </g>
        <g>
          <rect x="660.028" y="607.435" width="68.012" height="14.563" fill="#dee8f5"></rect>
          <rect x="664.408" y="610.715" width="47.461" height="8.003" fill="#f3f5fd"></rect>
          <g opacity="0.62">
            <rect x="716.242" y="607.435" width="6.247" height="14.563" fill="#c1d8ed"></rect>
          </g>
        </g>
        <g>
          <rect x="689.813" y="621.982" width="64.314" height="14.563" transform="translate(1443.941 1258.526) rotate(-180)" fill="#c1d8ed"></rect>
          <g>
            <rect x="664.169" y="621.982" width="68.012" height="14.563" transform="translate(1396.35 1258.526) rotate(-180)" fill="#f3f5fd"></rect>
            <rect x="669.721" y="621.982" width="3.301" height="14.563" transform="translate(1342.742 1258.526) rotate(-180)" fill="#dee8f5"></rect>
            <rect x="676.323" y="621.982" width="3.301" height="14.563" transform="translate(1355.947 1258.526) rotate(-180)" fill="#dee8f5"></rect>
            <circle cx="724.384" cy="629.263" r="4.696" fill="#dee8f5"></circle>
          </g>
          <rect x="684.712" y="625.693" width="30.023" height="7.139" fill="#dee8f5"></rect>
        </g>
      </g>
    </g>
  </g>
</svg>