<svg id="Layer_1" data-name="Layer 1" xmlns="http://www.w3.org/2000/svg" viewBox="0 0 893.391 650.699">
  <g>
    <path d="M770.623,553.785,95.535,533.216,279.711,96.541,796.579,208.668l-.2,2.6Zm-666.159-26.3L765.07,547.613,790.2,213.425l-506.9-109.966Z" fill="#f3f5fd"></path>
    <polygon points="473.134 366.648 279.088 101.773 283.928 98.227 475.041 359.098 792.103 208.337 794.679 213.756 473.134 366.648" fill="#f3f5fd"></polygon>
    <polygon points="766.23 553.227 473.835 366.273 101.225 533.089 98.774 527.613 474.339 359.473 769.462 548.172 766.23 553.227" fill="#f3f5fd"></polygon>
  </g>
  <circle cx="281.508" cy="100" r="100" fill="#dee8f5"></circle>
  <circle cx="793.391" cy="211.047" r="100" fill="#dee8f5"></circle>
  <circle cx="474.087" cy="362.873" r="100" fill="#dee8f5"></circle>
  <circle cx="100" cy="530.351" r="100" fill="#f3f5fd"></circle>
  <circle cx="767.846" cy="550.699" r="100" fill="#dee8f5"></circle>
  <g>
    <path d="M527.421,338.9c.325,4-3.842,7.725-4.529,11.5-.711,3.9,1.838,8.855.175,12.354-1.687,3.55-7.155,4.7-9.684,7.677s-2.785,8.557-6.016,10.794c-3.186,2.2-8.486.487-12.221,1.817-3.609,1.285-6.613,6-10.614,6.323s-7.724-3.843-11.494-4.53c-3.9-.711-8.855,1.838-12.355.175-3.549-1.687-4.7-7.155-7.676-9.684s-8.557-2.784-10.794-6.016c-2.205-3.186-.487-8.486-1.817-12.22-1.286-3.61-6-6.614-6.323-10.615s3.843-7.724,4.53-11.494c.711-3.9-1.838-8.855-.175-12.355,1.687-3.549,7.155-4.7,9.684-7.676s2.784-8.557,6.016-10.794c3.185-2.2,8.486-.487,12.22-1.817,3.61-1.286,6.614-6,10.614-6.323s7.725,3.843,11.5,4.53c3.9.711,8.855-1.838,12.354-.175,3.55,1.687,4.7,7.155,7.677,9.684s8.557,2.784,10.794,6.016c2.2,3.185.487,8.486,1.817,12.22C522.384,331.9,527.1,334.9,527.421,338.9Z" fill="#0f1011"></path>
    <path d="M463.086,385.937s8.434-4.462,6.572-27.421l17.421-3.214s-1.976,20.58,6.83,27.123Z" fill="#e69e87"></path>
    <g opacity="0.15">
      <path d="M490.344,378.119l-14.46-11.083,11.365-.108A31.343,31.343,0,0,0,490.344,378.119Z"></path>
    </g>
    <path d="M459.783,349.606c1.2,6.966,5,13.565,11.136,15.82a44.156,44.156,0,0,0,21.1,2.87c19.069-1.546,15.336-44.906,6.291-53.336s-35.618-3.12-38.863,10.963C457.771,333.207,458.641,342.975,459.783,349.606Z" fill="#e69e87"></path>
    <g>
      <circle cx="487.065" cy="342.685" r="1.579" fill="#0f1011"></circle>
      <circle cx="499.529" cy="341.675" r="1.579" fill="#0f1011"></circle>
      <path d="M502.27,338.311h-.01l-4.184-.057a.742.742,0,0,1-.733-.752.734.734,0,0,1,.752-.732l4.185.056a.743.743,0,0,1-.01,1.485Z" fill="#0f1011"></path>
      <path d="M483.659,339.82a.742.742,0,0,1-.172-1.464l4.127-.989a.742.742,0,1,1,.345,1.443l-4.126.989A.746.746,0,0,1,483.659,339.82Z" fill="#0f1011"></path>
      <path d="M487.785,355.127s5.831.621,9.919-.8c0,0-.035,3.841-4.65,4.215S487.785,355.127,487.785,355.127Z" fill="#fff"></path>
    </g>
    <path d="M472.629,331.572a136.7,136.7,0,0,1-5.305,48.414s-13.293-22.923-15.349-42.008c-1.928-17.891,11.265-28.441,20.173-30.425,33.853-7.538,36.289,17.191,36.289,17.191-6.167,12.824-39.472,12.768-39.472,12.768" fill="#0f1011"></path>
    <path d="M479.083,349.487a6.7,6.7,0,0,1-13.35,1.082,6.586,6.586,0,0,1,6.133-7.216C476.64,343.2,478.784,345.8,479.083,349.487Z" fill="#e69e87"></path>
    <g opacity="0.15">
      <path d="M494.071,351.454a.545.545,0,0,1-.16-1.066l3.214-.984-2.243-5.007a.545.545,0,1,1,1-.446l2.5,5.57a.547.547,0,0,1-.338.745l-3.805,1.164A.553.553,0,0,1,494.071,351.454Z"></path>
    </g>
  </g>
  <g>
    <g>
      <path d="M331.389,186.693l-5.94-15.5a137.847,137.847,0,0,0,1.469,17.93,100.265,100.265,0,0,1-86.389,2.13,70.051,70.051,0,0,0,3.389-21.66,53.077,53.077,0,0,0-1.179-10.41l-9.51,28.41a99.962,99.962,0,0,1-20.16-14.68l22.03-65.76.16.06a22.153,22.153,0,0,1,4.75-6.95c4.99-4.98,13.59-8.19,24.079-8.2.781,6.11,37.911,6.13,38.2.14,1.41.02,2.52.04,3.2.07,16.179.7,21.94,9.32,23.34,21.35l22.3,58.16A99.849,99.849,0,0,1,331.389,186.693Z" fill="#9ebcea"></path>
      <path d="M302.286,92.2c-.283,6-3.543,14.817-13.606,15.482-13.41.883-23.811-9.507-24.6-15.623h.033C277.32,92.059,294.589,92.081,302.286,92.2Z" fill="#e69e87"></path>
    </g>
    <g>
      <path d="M266.81,98.09s8.431-4.469,6.548-27.426l17.418-3.23s-1.957,20.582,6.855,27.117Z" fill="#e69e87"></path>
      <g opacity="0.15">
        <path d="M294.062,90.248l-14.47-11.07,11.365-.118A31.333,31.333,0,0,0,294.062,90.248Z"></path>
      </g>
      <path d="M263.475,61.762c1.206,6.965,5.007,13.561,11.151,15.81a44.152,44.152,0,0,0,21.1,2.852c19.068-1.564,15.3-44.92,6.243-53.341s-35.621-3.089-38.853,11C261.449,45.365,262.328,55.133,263.475,61.762Z" fill="#e69e87"></path>
      <path d="M308.263,28.58a6.065,6.065,0,0,0-2.311-2.137c-8.468-4.605-24.16-6.2-31.7-3.943-8.743,2.616-19.707,9.947-16.894,27.72.118.748.246,1.469.378,2.177a15.262,15.262,0,1,0,10.8,22.418,26.934,26.934,0,0,0,4.185,2.969c1.043.62,1.3.115,1.658-1.044,1.264-4.045,2.5-20.047,1.515-31.666l20.547-.71,3.579-10.186,2.935,10.186h7C310.884,38.845,311.851,32.589,308.263,28.58Z" fill="#0f1011"></path>
      <g>
        <circle cx="290.752" cy="54.818" r="1.579" fill="#0f1011"></circle>
        <circle cx="303.214" cy="53.796" r="1.579" fill="#0f1011"></circle>
        <path d="M305.952,50.429h-.009l-4.185-.052a.743.743,0,0,1-.733-.752.774.774,0,0,1,.751-.732l4.184.052a.742.742,0,0,1-.008,1.484Z" fill="#0f1011"></path>
        <path d="M287.341,51.955a.742.742,0,0,1-.173-1.464l4.126-.993a.742.742,0,1,1,.348,1.443l-4.126.994A.746.746,0,0,1,287.341,51.955Z" fill="#0f1011"></path>
      </g>
      <path d="M282.534,58.683a6.7,6.7,0,0,1-13.35,1.095,6.586,6.586,0,0,1,6.128-7.222C280.085,52.4,282.231,55,282.534,58.683Z" fill="#e69e87"></path>
      <g opacity="0.15">
        <path d="M297.764,63.58a.545.545,0,0,1-.16-1.066l3.213-.987-2.248-5.005a.545.545,0,0,1,1-.447l2.5,5.569a.544.544,0,0,1-.337.744l-3.8,1.168A.559.559,0,0,1,297.764,63.58Z"></path>
      </g>
      <path d="M291.482,67.259s5.832.615,9.919-.813c0,0-.032,3.84-4.647,4.219S291.482,67.259,291.482,67.259Z" fill="#fff"></path>
    </g>
  </g>
  <g>
    <g>
      <path d="M815.748,221.472s-8.431-4.47-6.548-27.426l-17.418-3.23s1.957,20.582-6.855,27.117Z" fill="#e69e87"></path>
      <g opacity="0.15">
        <path d="M788.5,213.63l14.47-11.07-11.365-.118A31.338,31.338,0,0,1,788.5,213.63Z"></path>
      </g>
      <path d="M819.083,185.144c-1.206,6.965-5.007,13.56-11.151,15.81a44.152,44.152,0,0,1-21.1,2.852c-19.068-1.564-15.3-44.92-6.243-53.342s35.621-3.088,38.853,11C821.109,168.747,820.23,178.515,819.083,185.144Z" fill="#e69e87"></path>
      <path d="M767.247,146.44c0-5.759,7.167-15.195,26.287-2.183l.019.012a54.412,54.412,0,0,1,14.75,1.613,27.776,27.776,0,0,1,9.5,4.884h0c5.321,4.318,9.2,11.42,7.393,22.836-3.14,19.836-11.265,25.13-15.361,27.563-1.043.62-1.3.115-1.658-1.043a88.535,88.535,0,0,1-2.43-13.049c-.623-4.585-4.737-7.491-4.24-12.975.174-1.917,3.261-8.943-6.292-9.02-5.374-.043-3.365.17-9.1.17-.817,0-1.539-.037-2.2-.1l-.007,0C764.107,165.155,767.247,152.2,767.247,146.44Z" fill="#0f1011"></path>
      <path d="M800.024,182.065a6.7,6.7,0,0,0,13.35,1.094,6.586,6.586,0,0,0-6.128-7.221C802.473,175.782,800.327,178.379,800.024,182.065Z" fill="#e69e87"></path>
      <path d="M802.966,160.82l4.932,1.806s-1.749,24.637-3.129,31.372-5.241,11.12-9.617,11.5c-6.719.576-11.588.622-16.517-1.14-5.558-1.986-4.779-16.9-4.779-16.9s17.885,1.938,22.834-.439S802.966,160.82,802.966,160.82Z" fill="#0f1011"></path>
      <g>
        <circle cx="791.806" cy="178.199" r="1.579" fill="#0f1011"></circle>
        <circle cx="779.344" cy="177.177" r="1.579" fill="#0f1011"></circle>
        <path d="M776.606,173.811a.742.742,0,0,1-.01-1.484l4.186-.053h.01a.742.742,0,0,1,.009,1.484l-4.185.053Z" fill="#0f1011"></path>
        <path d="M795.216,175.336a.744.744,0,0,1-.174-.02l-4.126-.993a.742.742,0,1,1,.347-1.443l4.126.993a.742.742,0,0,1-.173,1.463Z" fill="#0f1011"></path>
      </g>
      <g opacity="0.15">
        <path d="M784.794,186.961a.545.545,0,0,0,.16-1.066l-3.213-.987,2.247-5a.545.545,0,0,0-.994-.446l-2.5,5.569a.544.544,0,0,0,.337.744l3.8,1.167A.522.522,0,0,0,784.794,186.961Z"></path>
      </g>
      <path d="M791.076,190.641s-5.832.615-9.919-.814c0,0,.032,3.841,4.647,4.219S791.076,190.641,791.076,190.641Z" fill="#fff"></path>
    </g>
    <g>
      <path d="M864.918,280.913a99.844,99.844,0,0,1-19.809,15.73l-4.981-14.88a52.971,52.971,0,0,0-1.179,10.4,71.679,71.679,0,0,0,.41,7.71,100.225,100.225,0,0,1-82.5,4.28c.28-3.12.479-6.57.559-10.39l-3.519,9.18a98.854,98.854,0,0,1-20.811-12.13l20.951-54.63c1.4-12.02,7.16-20.64,23.33-21.34.69-.03,1.79-.05,3.21-.07.28,5.99,37.42,5.97,38.2-.14,10.49.01,19.09,3.22,24.07,8.21a21.837,21.837,0,0,1,4.75,6.94l.17-.06Z" fill="#8ddbe0"></path>
      <path d="M780.578,214.771c.283,6,3.543,14.817,13.606,15.482,13.41.883,23.811-9.507,24.6-15.623h-.033C805.544,214.63,788.275,214.651,780.578,214.771Z" fill="#e69e87"></path>
    </g>
  </g>
  <path d="M893.389,211.043a100.168,100.168,0,0,1-48.28,85.6c-1.88,1.14-3.79,2.22-5.75,3.23a100.225,100.225,0,0,1-82.5,4.28c-1-.38-1.981-.79-2.96-1.21a100.193,100.193,0,0,1-60.51-91.9,100,100,0,0,1,200,0Z" fill="none"></path>
  <g>
    <g>
      <path d="M802.467,506.224c.167-16.211-6.24-26.256-14.927-31.772-8.571-5.442-35.449-10.179-45.64,9.577-6.65,12.892-4.025,17.5-5.908,38.149s-9.121,22.815-16.46,47.842c-5.756,19.632,26.488,30.054,54.416,29.153s45.626-7.082,47.247-24.843C823.52,548.841,802.139,537.992,802.467,506.224Z" fill="#0f1011"></path>
      <path d="M785.828,551.043s-8.388-4.547-6.3-27.485l-17.387-3.389s1.768,20.6-7.1,27.052Z" fill="#e69e87"></path>
      <g opacity="0.15">
        <path d="M758.65,542.951l14.571-10.937-11.364-.221A31.349,31.349,0,0,1,758.65,542.951Z"></path>
      </g>
      <path d="M789.5,514.747c-1.269,6.954-5.13,13.514-11.294,15.707a44.155,44.155,0,0,1-21.13,2.658c-19.053-1.738-14.884-45.058-5.754-53.4s35.648-2.762,38.751,11.353C791.673,498.369,790.705,508.129,789.5,514.747Z" fill="#e69e87"></path>
      <g>
        <circle cx="762.285" cy="507.553" r="1.579" fill="#0f1011"></circle>
        <circle cx="749.832" cy="506.416" r="1.579" fill="#0f1011"></circle>
        <path d="M747.132,503.025a.742.742,0,0,1,0-1.484l4.186-.015h0a.743.743,0,0,1,0,1.485l-4.186.014Z" fill="#0f1011"></path>
        <path d="M765.728,504.721a.761.761,0,0,1-.182-.022l-4.117-1.03a.742.742,0,0,1,.362-1.44l4.117,1.03a.742.742,0,0,1-.18,1.462Z" fill="#0f1011"></path>
        <path d="M761.44,519.987s-5.837.561-9.911-.9c0,0,0,3.84,4.608,4.261S761.44,519.987,761.44,519.987Z" fill="#fff"></path>
      </g>
      <path d="M776.833,496.585c.414,31.457,3.446,43.677,3.446,43.677s14.895-18,17.142-37.063c2.108-17.871-10.978-28.554-19.865-30.627-33.776-7.878-36.121,16.758-36.121,16.758,2.183,8.405,39.055,13.619,39.055,13.619" fill="#0f1011"></path>
      <path d="M770.2,514.434a6.7,6.7,0,1,0,13.338,1.217,6.587,6.587,0,0,0-6.06-7.278C772.705,508.174,770.535,510.751,770.2,514.434Z" fill="#e69e87"></path>
      <g opacity="0.15">
        <path d="M755.2,516.25a.545.545,0,0,0,.165-1.064l-3.2-1.017,2.293-4.983a.545.545,0,1,0-.99-.456l-2.552,5.544a.547.547,0,0,0,.33.748l3.792,1.2A.56.56,0,0,0,755.2,516.25Z"></path>
      </g>
    </g>
    <g>
      <path d="M810.3,612.543a53.081,53.081,0,0,0-1.18,10.41,69.392,69.392,0,0,0,2.27,17.8,100.211,100.211,0,0,1-85.15.9,138.76,138.76,0,0,0,1.349-17.1l-5.739,14.96a99.95,99.95,0,0,1-20.16-13.83l22.52-58.71c1.39-12.02,7.15-20.64,23.33-21.34.69-.03,1.79-.05,3.21-.08.28,6,37.419,5.98,38.2-.14,10.49.01,19.09,3.23,24.07,8.21a21.986,21.986,0,0,1,4.75,6.95l.17-.06,20.45,61.06a99.666,99.666,0,0,1-19.92,15.38Z" fill="#ffb92c"></path>
      <path d="M750.747,545.558c.284,6,3.544,14.816,13.606,15.482,13.41.883,23.811-9.507,24.6-15.624h-.033C775.714,545.416,758.444,545.438,750.747,545.558Z" fill="#e69e87"></path>
    </g>
  </g>
  <g>
    <path d="M539.289,438.693a100.127,100.127,0,0,1-99.14,18.27,54.406,54.406,0,0,0-1.17-9.77l-2.76,8.25a98.971,98.971,0,0,1-21.11-11.82l16.229-48.46.171.05a21.948,21.948,0,0,1,4.75-6.94c4.98-4.99,13.579-8.2,24.07-8.21.78,6.11,37.92,6.14,38.2.14,1.42.02,2.52.04,3.21.08,16.17.69,21.929,9.32,23.33,21.34Z" fill="#367CFF"></path>
    <path d="M498.529,380.2c-.284,6-3.544,14.816-13.607,15.481-13.409.883-23.81-9.507-24.6-15.623h.033C473.562,380.061,490.831,380.083,498.529,380.2Z" fill="#e69e87"></path>
  </g>
  <g>
    <g>
      <path d="M81.406,543.636s8.431-4.47,6.548-27.426l17.418-3.23s-1.957,20.582,6.855,27.116Z" fill="#e69e87"></path>
      <g opacity="0.15">
        <path d="M108.658,535.793l-14.47-11.069,11.365-.118A31.327,31.327,0,0,0,108.658,535.793Z"></path>
      </g>
      <path d="M78.071,507.308c1.206,6.965,5.007,13.56,11.151,15.81,7.293,2.671,12.7,2.851,21.1,2.851,11.475,0,11.1-11.967,11.418-24.026.323-12.108-.639-25.1-5.175-29.315-9.052-8.422-35.621-3.088-38.853,11C76.045,490.91,76.924,500.678,78.071,507.308Z" fill="#e69e87"></path>
      <path d="M129.7,467.613c0-5.759-7.167-15.195-26.287-2.184l-.02.013a54.324,54.324,0,0,0-14.749,1.613C79.9,469.671,68.935,477,71.748,494.774c3.141,19.836,11.266,25.131,15.361,27.564,1.044.62,1.3.115,1.658-1.043A88.347,88.347,0,0,0,91.2,508.246a71.909,71.909,0,0,0,.968-12.975c0-1.925.011-8.943,9.564-9.02,5.373-.044,3.365.17,9.1.17.817,0,1.54-.038,2.205-.1l.007,0C132.838,486.328,129.7,473.372,129.7,467.613Z" fill="#0f1011"></path>
      <g>
        <circle cx="105.347" cy="500.363" r="1.579" fill="#0f1011"></circle>
        <circle cx="117.81" cy="499.341" r="1.579" fill="#0f1011"></circle>
        <path d="M120.547,495.975h-.008l-4.185-.053a.742.742,0,0,1,.009-1.484h.009l4.184.052a.743.743,0,0,1-.009,1.485Z" fill="#0f1011"></path>
        <path d="M101.937,497.5a.742.742,0,0,1-.173-1.463l4.126-.993a.742.742,0,1,1,.348,1.443l-4.126.993A.752.752,0,0,1,101.937,497.5Z" fill="#0f1011"></path>
      </g>
      <path d="M97.13,504.229a6.7,6.7,0,1,1-13.35,1.094,6.587,6.587,0,0,1,6.128-7.222C94.681,497.946,96.827,500.542,97.13,504.229Z" fill="#e69e87"></path>
      <g opacity="0.15">
        <path d="M112.36,509.125a.545.545,0,0,1-.16-1.066l3.213-.986-2.248-5a.545.545,0,0,1,.995-.447l2.5,5.568a.544.544,0,0,1-.337.744l-3.8,1.168A.527.527,0,0,1,112.36,509.125Z"></path>
      </g>
      <path d="M106.078,512.8s5.832.615,9.919-.813c0,0-.032,3.841-4.647,4.219S106.078,512.8,106.078,512.8Z" fill="#fff"></path>
    </g>
    <g>
      <path d="M141.079,621.553l-1.83-4.76c.04,1.92.11,3.74.21,5.47a100.234,100.234,0,0,1-81.98-1.38c.149-1.81.23-3.7.23-5.69a53.818,53.818,0,0,0-1.17-10.41l-4.47,13.35a99.76,99.76,0,0,1-20.191-14.58l17.011-50.8.17.06a22.119,22.119,0,0,1,4.75-6.95c4.98-4.98,13.58-8.19,24.069-8.2.79,6.11,37.921,6.13,38.2.14,1.42.02,2.52.04,3.21.07,16.18.7,21.94,9.32,23.33,21.34l19.11,49.82A100.033,100.033,0,0,1,141.079,621.553Z" fill="#173161"></path>
      <path d="M116.082,537.8c-.283,6-3.543,14.817-13.606,15.482-13.41.883-23.811-9.507-24.6-15.623h.033C91.116,537.659,108.385,537.68,116.082,537.8Z" fill="#e69e87"></path>
    </g>
  </g>
</svg>