<svg id="Layer_1" data-name="Layer 1" xmlns="http://www.w3.org/2000/svg" viewBox="0 0 739.708 487.263">
  <g id="Layer_8" data-name="Layer 8">
    <path d="M60.154,487.222a49.994,49.994,0,0,1-47.08-33.046c-15.336-42.72-28.847-121.856,31.2-207.454,66.391-94.645,173.982-220.376,289.7-228.733,146.349-15.7,190.183,181.159,255.85,220.866,56.735,34.307,142.121,82.383,149.637,193.271a50.085,50.085,0,0,1-44.826,54.843q-2.484.249-4.984.251Z" fill="#f3f5fd"></path>
  </g>
  <g>
    <path d="M290.34,33.5c.154-14.869-5.723-24.083-13.691-29.142-7.862-4.992-32.515-9.337-41.862,8.784-6.1,11.825-3.692,16.052-5.42,34.991S221,69.06,214.27,92.016c-5.28,18.007,24.3,27.566,49.912,26.74s41.85-6.5,43.336-22.787C309.651,72.59,290.039,62.639,290.34,33.5Z" fill="#0f1011"></path>
    <path d="M275.079,74.61S267.385,70.439,269.3,49.4l-15.948-3.108s1.622,18.894-6.516,24.813Z" fill="#e69e87"></path>
    <g opacity="0.15">
      <path d="M250.15,67.187l13.365-10.031-10.423-.2A28.732,28.732,0,0,1,250.15,67.187Z"></path>
    </g>
    <path d="M278.444,41.318c-1.165,6.378-4.706,12.4-10.36,14.407A40.5,40.5,0,0,1,248.7,58.163c-17.476-1.595-13.652-41.329-5.278-48.977s32.7-2.533,35.544,10.414C280.44,26.3,279.552,35.247,278.444,41.318Z" fill="#e69e87"></path>
    <g>
      <circle cx="253.484" cy="34.719" r="1.449" fill="#0f1011"></circle>
      <circle cx="242.062" cy="33.677" r="1.449" fill="#0f1011"></circle>
      <path d="M239.586,30.566a.681.681,0,0,1,0-1.361l3.839-.013h0a.681.681,0,0,1,0,1.361l-3.839.013Z" fill="#0f1011"></path>
      <path d="M256.643,32.122a.674.674,0,0,1-.166-.021l-3.776-.945a.681.681,0,0,1,.33-1.321l3.776.946a.681.681,0,0,1-.164,1.341Z" fill="#0f1011"></path>
      <path d="M252.709,46.124s-5.353.515-9.09-.83c0,0,0,3.523,4.226,3.909S252.709,46.124,252.709,46.124Z" fill="#fff"></path>
    </g>
    <path d="M266.828,24.659c.38,28.853,3.161,40.061,3.161,40.061s13.662-16.509,15.724-33.995c1.933-16.391-10.07-26.19-18.222-28.091-30.98-7.227-33.131,15.371-33.131,15.371,2,7.708,35.823,12.491,35.823,12.491" fill="#0f1011"></path>
    <path d="M260.743,41.031a6.143,6.143,0,0,0,12.235,1.116,6.042,6.042,0,0,0-5.559-6.676C263.042,35.288,261.052,37.652,260.743,41.031Z" fill="#e69e87"></path>
    <g opacity="0.15">
      <path d="M246.983,42.7a.5.5,0,0,0,.152-.976l-2.939-.932,2.1-4.572a.5.5,0,1,0-.908-.417l-2.341,5.085a.5.5,0,0,0,.3.686l3.478,1.1A.5.5,0,0,0,246.983,42.7Z"></path>
    </g>
  </g>
  <g>
    <path d="M522.054,244.256c0,67.6-122.4,242.966-122.4,242.966s-122.4-175.364-122.4-242.966,54.8-129.227,122.4-129.227S522.054,176.653,522.054,244.256Z" fill="#367CFF"></path>
    <circle cx="399.649" cy="238.012" r="83.721" fill="#fff"></circle>
    <circle cx="399.649" cy="238.012" r="54.514" fill="#367CFF"></circle>
  </g>
  <path d="M194.771,100.8s-7.487-11.9-7.181-15.115,9.665-6.479,9.665-6.479-1.354-2.849-2.561-5.975c-1.392-3.608-2.589-7.585-1.283-7.981,1.259-.383,3.17,2.892,4.92,6.7,2.249,4.888,4.234,10.648,4.234,10.648s.207-5.689,2.311-5.327c.865.148,1.23,1.177,1.233,5.255,0,4.647.727,11.893.727,11.893Z" fill="#e69e87"></path>
  <path d="M218.541,154.117a10.9,10.9,0,0,1-10.1-6.8l-19.6-48.266,20.2-8.2,5.934,14.613,4.658-23.279,21.381,4.278-11.785,58.894a10.9,10.9,0,0,1-9.666,8.715Q219.053,154.118,218.541,154.117Z" fill="#ffb92c"></path>
  <path d="M183.159,114.986l12.122-1.934a3.427,3.427,0,0,0,2.761-4.305l-7.627-27.372a3.427,3.427,0,0,0-3.841-2.465l-12.122,1.934a3.427,3.427,0,0,0-2.761,4.305l7.627,27.372A3.426,3.426,0,0,0,183.159,114.986Z" fill="#c1d8ed"></path>
  <path d="M292.991,361.1c-18.18-4.592-19.97-5.278-20.559-5.5l7.518-19.609c-.06-.023-.137-.053-.232-.084,1.479.487,10.71,2.89,18.415,4.835Z" fill="#e69e87"></path>
  <path d="M292.173,388.525a4.109,4.109,0,0,1-5.494,2.457h0a4.109,4.109,0,0,1-2.5-3.644l.014-25.777a3.463,3.463,0,0,1,1.217-2.621,19.1,19.1,0,0,0,6.872-9.79,17.038,17.038,0,0,0-.248-9.388,1.547,1.547,0,0,1,1.943-2.014l11.331,3.8a2.677,2.677,0,0,1,1.683,3.4Z" fill="#c1d8ed"></path>
  <path d="M243.229,478.53s-.07-21.747-.07-23.673h21c0,1.92.07,23.6.07,23.6Z" fill="#e69e87"></path>
  <path d="M298.253,177.406c-13.474-13.474-76.077,4.7-76.077,4.7l-.057.39-1.282-.72c-15.923,32.007-38.469,79.9-54.072,112.527a18.536,18.536,0,0,0,8.8,25.618l68.15,30.321c-3.5,38.439-7.518,76.847-10.863,115.225l36.715,4.582c6.672-45.786,13.533-91.519,19.659-137.362l1-2.248-.659-.293c3.757-28.243,8.079-56.453,10.194-84.9C301.559,221.049,305.5,184.655,298.253,177.406ZM209.688,294.6c13.139-21.9,28.6-47.708,41.977-69.614-.686,28.763-2.391,57.506-4.631,86.23Z" fill="#173161"></path>
  <path d="M202.68,107.812l-7.149,9.7s-19.216-3.852-21.018-18.655c-.208-1.7-.028-6.42,2.083-5.787,5.5,1.648,12.345,10.087,17.144,11.21-1.095-1.962-2.431-4.731-1.57-5.237C194.437,97.711,200.531,105.747,202.68,107.812Z" fill="#e69e87"></path>
  <path d="M299.323,77.347c-4.57-4.57-12.46-7.52-22.08-7.53-.72,5.61-34.78,5.63-35.04.13-1.3.02-2.31.04-2.94.07-23.117,1-23.049,19.629-20.775,40.22l-19.021-8.389-8.8,19.95,30.273,13.352q.03.9.042,1.8c.39,32.46-8.38,38.58-4.059,48.5,4.189,9.63,86.519,13.63,87.619-3.31.7-10.78-8.8-20.19-8.8-41.2S315.073,93.1,299.323,77.347Z" fill="#ffb92c"></path>
  <path d="M242.2,69.947c.26,5.5,3.25,13.59,12.48,14.2,12.3.81,21.84-8.72,22.561-14.33h-.031C265.1,69.817,249.264,69.837,242.2,69.947Z" fill="#e69e87"></path>
  <path d="M217.725,487.076a4.108,4.108,0,0,1-4.076-4.427h0a4.106,4.106,0,0,1,2.659-3.529l24.442-8.187a3.467,3.467,0,0,1,2.873.319,19.1,19.1,0,0,0,11.467,3.4,17.026,17.026,0,0,0,8.821-3.222,1.546,1.546,0,0,1,2.527,1.2v11.952a2.678,2.678,0,0,1-2.689,2.678Z" fill="#c1d8ed"></path>
  <g>
    <path d="M634.3,403.383c-5-1.636-10.132.205-15.041,3.935,6.467-16.33,9.136-31.08-1.92-31.745-7.736-.464-13.662,5.47-18.164,13.908-1.583-14.835-5.668-25.9-14.819-22.231-10.046,4.027-11.574,17.829-10.05,32.271-4.426-7.376-9.191-11.49-13.518-7.163-12.913,12.913,18.783,49.3,18.783,49.3h7.871l4.493,4.877c-.91,1.923-1.408,3.068-1.408,3.068l5.706,11.612S655.054,410.176,634.3,403.383Z" fill="#8ddbe0"></path>
    <polygon points="620.19 487.222 575.64 487.222 568.182 435.215 627.647 435.215 620.19 487.222" fill="#c1d8ed"></polygon>
  </g>
  <path d="M139.146,487.222H92.93c-8.032-10.566-22.118-31.881-13.014-40.985,4.14-4.13,8.692-.2,12.928,6.847-1.453-13.808,0-27,9.61-30.858,8.75-3.5,12.661,7.076,14.172,21.267,4.3-8.071,9.973-13.751,17.365-13.3,10.576.631,8.023,14.736,1.836,30.351,4.695-3.567,9.6-5.326,14.382-3.758C160.221,460.065,150.869,474.112,139.146,487.222Z" fill="#8ddbe0"></path>
</svg>